<svg width="80" height="80" viewBox="0 0 80 80" fill="none" xmlns="http://www.w3.org/2000/svg">
<path d="M59.1666 10C62.0398 10 64.7953 11.1414 66.827 13.173C68.8586 15.2047 70 17.9602 70 20.8333V40.0733C68.4416 39.0743 66.7611 38.28 65 37.71V28.3333H15V59.1666C15 62.3866 17.6133 65 20.8333 65H37.71C38.2867 66.78 39.0833 68.4566 40.0733 70H20.8333C17.9602 70 15.2047 68.8586 13.173 66.827C11.1414 64.7953 10 62.0398 10 59.1666V20.8333C10 17.9602 11.1414 15.2047 13.173 13.173C15.2047 11.1414 17.9602 10 20.8333 10H59.1666ZM59.1666 15H20.8333C19.2862 15 17.8025 15.6146 16.7085 16.7085C15.6146 17.8025 15 19.2862 15 20.8333V23.3333H65V20.8333C65 19.2862 64.3854 17.8025 63.2914 16.7085C62.1975 15.6146 60.7137 15 59.1666 15ZM76.6666 58.3333C76.6666 63.1956 74.7351 67.8588 71.2969 71.2969C67.8588 74.7351 63.1956 76.6666 58.3333 76.6666C53.471 76.6666 48.8079 74.7351 45.3697 71.2969C41.9315 67.8588 40 63.1956 40 58.3333C40 53.471 41.9315 48.8079 45.3697 45.3697C48.8079 41.9315 53.471 40 58.3333 40C63.1956 40 67.8588 41.9315 71.2969 45.3697C74.7351 48.8079 76.6666 53.471 76.6666 58.3333ZM58.3333 46.6666C57.8913 46.6666 57.4674 46.8422 57.1548 47.1548C56.8422 47.4674 56.6666 47.8913 56.6666 48.3333V61.6666C56.6666 62.1087 56.8422 62.5326 57.1548 62.8451C57.4674 63.1577 57.8913 63.3333 58.3333 63.3333C58.7753 63.3333 59.1993 63.1577 59.5118 62.8451C59.8244 62.5326 60 62.1087 60 61.6666V48.3333C60 47.8913 59.8244 47.4674 59.5118 47.1548C59.1993 46.8422 58.7753 46.6666 58.3333 46.6666ZM58.3333 70.4166C58.8858 70.4166 59.4157 70.1971 59.8064 69.8064C60.1971 69.4157 60.4166 68.8858 60.4166 68.3333C60.4166 67.7808 60.1971 67.2509 59.8064 66.8602C59.4157 66.4695 58.8858 66.25 58.3333 66.25C57.7808 66.25 57.2509 66.4695 56.8602 66.8602C56.4695 67.2509 56.25 67.7808 56.25 68.3333C56.25 68.8858 56.4695 69.4157 56.8602 69.8064C57.2509 70.1971 57.7808 70.4166 58.3333 70.4166Z" fill="white"/>
</svg>
