<svg width="74" height="70" viewBox="0 0 74 70" fill="none" xmlns="http://www.w3.org/2000/svg">
<path d="M12.7201 0L8.99893 3.70097L14.5357 9.21295L18.2516 5.51198L12.7174 0H12.7201ZM61.2826 0L55.7458 5.51198L59.4643 9.21295L64.9984 3.70361L61.2826 0ZM37 1.64254C36.1279 1.65307 35.2451 1.70308 34.3571 1.811C34.3307 1.811 34.3043 1.80574 34.2779 1.811C23.5584 3.03501 15.0273 11.661 13.5446 22.2901C12.3606 30.845 15.9021 38.6023 21.8036 43.5983C24.2176 45.6503 25.8504 48.4661 26.4286 51.5741V67.3677H32.4543C33.374 68.9392 35.0522 70 37 70C38.9478 70 40.626 68.9392 41.5457 67.3677H47.5714V56.8386H47.8199V53.7115C47.8199 49.8526 49.8337 45.9621 53.1056 42.9376C57.4821 38.5733 60.7857 32.3743 60.7857 25.254C60.7857 12.2506 50.0399 1.52145 37 1.64254ZM37 6.90708C47.2146 6.76494 55.5 15.0934 55.5 25.254C55.5 30.766 52.9364 35.6199 49.3871 39.1524L49.4716 39.2366C45.9444 42.4762 43.6636 46.8408 43.0231 51.5767H31.4632C30.8818 47.065 28.9393 42.6981 25.2684 39.5657C20.5984 35.6173 17.8155 29.6683 18.7458 22.9508C19.9007 14.6591 26.6559 7.99158 34.9333 7.07818C35.6167 6.98328 36.3049 6.92704 36.9947 6.90971L37 6.90708ZM0 25.254V30.5186H7.92857V25.254H0ZM66.0714 25.254V30.5186H74V25.254H66.0714ZM14.5357 46.5596L9.00157 52.069L12.7201 55.7726L18.2489 50.2606L14.5357 46.5596ZM59.4643 46.5596L55.7484 50.2606L61.2799 55.7726L64.9984 52.069L59.4643 46.5596ZM31.7143 56.8413H42.2857V62.1058H31.7143V56.8413Z" fill="white"/>
</svg>
