<svg width="20" height="23" viewBox="0 0 20 23" fill="none" xmlns="http://www.w3.org/2000/svg">
<path d="M0.714286 5.893H19.2857C19.6802 5.893 20 5.57322 20 5.17871V3.393C20 2.99849 19.6802 2.67871 19.2857 2.67871H0.714286C0.319777 2.67871 0 2.99849 0 3.393V5.17871C0 5.57322 0.319777 5.893 0.714286 5.893ZM0.714286 13.0359H19.2857C19.6802 13.0359 20 12.7161 20 12.3216V10.5359C20 10.1413 19.6802 9.82157 19.2857 9.82157H0.714286C0.319777 9.82157 0 10.1413 0 10.5359V12.3216C0 12.7161 0.319777 13.0359 0.714286 13.0359ZM0.714286 20.1787H19.2857C19.6802 20.1787 20 19.8589 20 19.4644V17.6787C20 17.2842 19.6802 16.9644 19.2857 16.9644H0.714286C0.319777 16.9644 0 17.2842 0 17.6787V19.4644C0 19.8589 0.319777 20.1787 0.714286 20.1787Z" fill="#8F8F8F"/>
</svg>
