<svg width="148" height="30" viewBox="0 0 148 30" fill="none" xmlns="http://www.w3.org/2000/svg">
<path d="M4.40289 13.2356L0.397678 17.8623C-0.638153 13.4888 0.461823 9.99114 2.40028 6.67536C5.02439 2.18675 9.74318 0 14.1857 0C18.6283 0 25.741 2.02562 28.4572 8.63192C31.1734 15.2382 28.7104 21.2537 26.984 23.9162C29.1708 20.2102 29.3089 16.159 27.9738 11.0489C26.8397 6.70786 21.8969 3.09299 18.9736 2.18675C21.2754 2.90033 26.4546 7.41195 26.984 12.6832C27.4075 16.9002 26.1477 19.3509 25.4648 20.0491C26.3395 18.8061 26.3165 16.5273 25.9021 12.6832C25.5707 9.60791 22.8484 7.04365 21.5286 6.14593C23.3471 7.98741 24.3139 10.0821 24.3829 12.6832C24.4382 14.764 23.3011 17.0106 22.6796 17.8623C23.2272 16.9646 23.7154 13.6039 23.6463 12.6832C23.5773 11.7624 22.7486 4.30445 14.1857 4.30445C7.33544 4.30445 4.80955 10.2586 4.40289 13.2356Z" fill="white"/>
<path d="M9.88128 9.04626C7.98456 9.48821 6.42084 11.256 5.87607 12.0847C7.44132 11.0258 8.86847 10.4504 13.5873 10.4504C16.3034 10.4504 18.6513 11.5322 19.1577 12.453C19.1577 12.453 20.0554 12.6141 20.6079 12.9594C21.1603 13.3047 21.966 13.719 21.966 13.719C21.9813 13.5425 21.8417 12.9686 21.1603 12.0847C20.479 11.2008 19.5414 10.6269 19.1577 10.4504C19.3971 9.62172 18.8124 9.16902 18.4902 9.04626C17.9071 8.56287 16.4369 7.54545 15.2216 7.34289C14.0062 7.14033 12.5668 5.92342 11.999 5.34028C12.022 5.60883 12.0542 6.30245 11.999 6.92856C11.9437 7.55466 12.4977 8.23294 12.7816 8.49381C12.6051 8.49381 11.778 8.6043 9.88128 9.04626Z" fill="#FF6633"/>
<path d="M7.44135 12.1537C4.17272 13.5349 1.42585 17.0797 0.512787 18.8751C1.17572 21.932 2.90671 23.7244 3.68934 24.2384C3.45915 22.374 5.1118 17.9218 7.74059 15.0541C10.0194 12.5681 15.3367 12.1231 17.8917 12.1537C15.3367 10.6806 11.4916 10.4424 7.44135 12.1537Z" fill="#FF6633"/>
<path d="M10.1805 19.7959C9.12516 23.4754 10.2189 27.7986 11.0322 29.0263C11.0322 29.0263 6.76612 26.8088 5.32363 25.7577C5.23923 25.3126 5.02301 23.5692 5.32363 21.9826C5.73797 19.7959 5.80852 18.3442 8.29302 15.8597C9.67413 14.4786 13.7868 13.0285 15.82 12.9364C13.4491 13.2356 11.0322 16.8265 10.1805 19.7959Z" fill="#FF6633"/>
<path d="M10.5949 21.5913C10.9876 17.0567 13.8174 15.1231 14.554 14.0182C13.9786 15.6756 14.0568 15.6526 13.8174 16.5733C13.5182 17.7242 13.7484 20.9468 14.554 23.732C15.1986 25.9602 17.1705 28.4355 18.0759 29.3946L13.0809 29.6938C12.4133 29.2104 10.275 25.2841 10.5949 21.5913Z" fill="#FF6633"/>
<path d="M25.0504 25.9188L20.3777 28.9572C20.3777 28.9572 19.1117 28.9572 16.4185 25.9188C14.264 23.488 14.155 19.6578 14.3699 18.0465C14.508 18.668 14.9085 20.1412 15.4057 21.0619C16.0272 22.2128 17.4544 23.732 19.1117 24.8369C20.4375 25.7208 23.6233 25.9265 25.0504 25.9188Z" fill="#FF6633"/>
<path d="M37.4428 30C35.4016 30 33.7559 29.3876 32.5057 28.1629C31.281 26.9127 30.6687 25.2798 30.6687 23.2641V20.2406C30.6687 19.9855 30.7962 19.8579 31.0514 19.8579H33.9601C34.2152 19.8579 34.3428 19.9855 34.3428 20.2406V23.3407C34.3428 24.3612 34.6234 25.2032 35.1848 25.8666C35.7716 26.5045 36.5243 26.8234 37.4428 26.8234C38.3614 26.8234 39.1013 26.5045 39.6626 25.8666C40.2494 25.2032 40.5429 24.3612 40.5429 23.3407V3.28611C40.5429 3.03097 40.6704 2.90339 40.9256 2.90339H43.8343C44.0894 2.90339 44.217 3.03097 44.217 3.28611V23.2641C44.217 25.2798 43.5919 26.9127 42.3416 28.1629C41.1169 29.3876 39.484 30 37.4428 30Z" fill="white"/>
<path d="M55.1081 10.5961C55.1081 10.3409 55.2356 10.2134 55.4908 10.2134H58.3995C58.6546 10.2134 58.7822 10.3409 58.7822 10.5961V29.3111C58.7822 29.5662 58.6546 29.6938 58.3995 29.6938H55.4908C55.2356 29.6938 55.1081 29.5662 55.1081 29.3111V28.2012C55.1081 28.1247 55.0825 28.0864 55.0315 28.0864C55.006 28.0864 54.9677 28.1119 54.9167 28.1629C54.1513 29.3621 52.9266 29.9617 51.2426 29.9617C49.7117 29.9617 48.4742 29.5025 47.5302 28.5839C46.5862 27.6399 46.1141 26.2111 46.1141 24.2975V10.5961C46.1141 10.3409 46.2417 10.2134 46.4969 10.2134H49.4055C49.6607 10.2134 49.7882 10.3409 49.7882 10.5961V23.4937C49.7882 25.688 50.6557 26.7851 52.3907 26.7851C53.2582 26.7851 53.9216 26.479 54.3809 25.8666C54.8657 25.2287 55.1081 24.3612 55.1081 23.2641V10.5961Z" fill="white"/>
<path d="M67.8772 10.022C68.515 10.022 69.0636 10.1623 69.5229 10.443C69.7015 10.545 69.7653 10.7109 69.7142 10.9405L69.1401 13.8492C69.1146 14.0788 68.9615 14.1554 68.6809 14.0788C68.3492 13.9513 67.992 13.8875 67.6093 13.8875C67.4562 13.8875 67.2265 13.913 66.9204 13.964C66.1294 14.0406 65.466 14.4743 64.9302 15.2653C64.4199 16.0562 64.1648 17.013 64.1648 18.1357V29.3111C64.1648 29.5662 64.0372 29.6938 63.7821 29.6938H60.8734C60.6182 29.6938 60.4907 29.5662 60.4907 29.3111V10.5961C60.4907 10.3409 60.6182 10.2134 60.8734 10.2134H63.7821C64.0372 10.2134 64.1648 10.3409 64.1648 10.5961V12.8159C64.1648 12.8924 64.1775 12.9434 64.203 12.9689C64.2541 12.9689 64.2924 12.9307 64.3179 12.8541C65.0578 10.966 66.2442 10.022 67.8772 10.022Z" fill="white"/>
<path d="M71.8464 7.15159C71.132 7.15159 70.5451 6.92196 70.0859 6.46269C69.6266 6.00343 69.397 5.41659 69.397 4.70218C69.397 3.98777 69.6266 3.40093 70.0859 2.94166C70.5451 2.4824 71.132 2.25277 71.8464 2.25277C72.5863 2.25277 73.1732 2.4824 73.6069 2.94166C74.0662 3.37541 74.2958 3.96225 74.2958 4.70218C74.2958 5.41659 74.0662 6.00343 73.6069 6.46269C73.1476 6.92196 72.5608 7.15159 71.8464 7.15159ZM70.4303 29.6938C70.1752 29.6938 70.0476 29.5662 70.0476 29.3111V10.5961C70.0476 10.3409 70.1752 10.2134 70.4303 10.2134H73.339C73.5942 10.2134 73.7217 10.3409 73.7217 10.5961V29.3111C73.7217 29.5662 73.5942 29.6938 73.339 29.6938H70.4303Z" fill="white"/>
<path d="M81.1815 29.9234C79.2679 29.9234 77.7498 29.4642 76.6271 28.5457C75.53 27.6016 74.9814 26.3386 74.9814 24.7567V24.4123C74.9814 24.1571 75.109 24.0296 75.3641 24.0296H78.0814C78.3366 24.0296 78.4642 24.1571 78.4642 24.4123V24.6802C78.4642 25.3691 78.7321 25.9559 79.2679 26.4407C79.8037 26.9 80.4671 27.1296 81.258 27.1296C82.0235 27.1296 82.6358 26.9 83.0951 26.4407C83.5799 25.9814 83.8223 25.3946 83.8223 24.6802C83.8223 24.1189 83.6564 23.6468 83.3247 23.2641C82.993 22.8814 82.5975 22.588 82.1383 22.3839C81.7045 22.1542 81.0284 21.848 80.1099 21.4653C79.1148 21.0316 78.2856 20.6106 77.6222 20.2024C76.9843 19.7941 76.4102 19.2073 75.8999 18.4418C75.3896 17.6764 75.1345 16.7068 75.1345 15.5332C75.1345 13.7982 75.6703 12.4459 76.7419 11.4763C77.8391 10.5068 79.3062 10.022 81.1432 10.022C83.0313 10.022 84.5112 10.5195 85.5828 11.5146C86.6799 12.5097 87.2285 13.862 87.2285 15.5714V15.6863C87.2285 15.9414 87.1009 16.069 86.8457 16.069H84.205C83.9498 16.069 83.8223 15.9414 83.8223 15.6863V15.4183C83.8223 14.7295 83.5799 14.1426 83.0951 13.6578C82.6103 13.1731 81.9852 12.9307 81.2198 12.9307C80.4288 12.9307 79.8037 13.1731 79.3444 13.6578C78.8852 14.1426 78.6555 14.7295 78.6555 15.4183C78.6555 15.9542 78.8086 16.4007 79.1148 16.7579C79.421 17.1151 79.7909 17.4085 80.2247 17.6381C80.6584 17.8422 81.3473 18.1484 82.2914 18.5567C83.3375 19.0159 84.205 19.4624 84.8939 19.8962C85.5828 20.3044 86.1824 20.8912 86.6927 21.6567C87.2285 22.4221 87.4964 23.3789 87.4964 24.5271C87.4964 26.1855 86.9223 27.4996 85.7741 28.4691C84.6515 29.4387 83.1206 29.9234 81.1815 29.9234Z" fill="white"/>
<path fill-rule="evenodd" clip-rule="evenodd" d="M145.07 2.80441C146.608 2.80441 147.856 4.05205 147.856 5.59091C147.856 7.12978 146.608 8.37742 145.07 8.37742C143.531 8.37742 142.283 7.12978 142.283 5.59091C142.283 4.05205 143.531 2.80441 145.07 2.80441ZM145.07 3.32954C146.319 3.32954 147.331 4.34217 147.331 5.59091C147.331 6.84004 146.318 7.85229 145.07 7.85229C143.82 7.85229 142.808 6.83966 142.808 5.59091C142.808 4.34179 143.821 3.32954 145.07 3.32954Z" fill="#FF6600"/>
<path d="M143.937 6.95848V4.17216H145.172C145.421 4.17216 145.609 4.1975 145.739 4.24819C145.868 4.2976 145.971 4.38567 146.048 4.51238C146.126 4.63908 146.164 4.7791 146.164 4.93241C146.164 5.13008 146.1 5.2967 145.972 5.43228C145.844 5.56786 145.647 5.65402 145.379 5.69076C145.477 5.73765 145.551 5.78389 145.602 5.82951C145.709 5.92834 145.811 6.05188 145.908 6.20013L146.392 6.95848H145.929L145.56 6.37879C145.452 6.21154 145.364 6.08356 145.294 5.99486C145.224 5.90617 145.161 5.84408 145.106 5.8086C145.051 5.77312 144.995 5.74842 144.938 5.73448C144.897 5.72561 144.828 5.72117 144.733 5.72117H144.306V6.95848H143.937ZM144.306 5.40187H145.098C145.267 5.40187 145.398 5.38476 145.493 5.35055C145.588 5.31507 145.661 5.25932 145.71 5.1833C145.76 5.106 145.784 5.02238 145.784 4.93241C145.784 4.80064 145.736 4.6923 145.64 4.60741C145.545 4.52251 145.394 4.48006 145.187 4.48006H144.306V5.40187Z" fill="#FF6600"/>
<path d="M99.6507 2.90339C99.9058 2.90339 100.033 3.03097 100.033 3.28611V5.69725C100.033 5.9524 99.9058 6.07997 99.6507 6.07997H94.6371C94.535 6.07997 94.484 6.131 94.484 6.23306V29.3111C94.484 29.5662 94.3564 29.6938 94.1013 29.6938H91.1926C90.9374 29.6938 90.8099 29.5662 90.8099 29.3111V6.23306C90.8099 6.131 90.7588 6.07997 90.6568 6.07997H85.911C85.6559 6.07997 85.5283 5.9524 85.5283 5.69725V3.28611C85.5283 3.03097 85.6559 2.90339 85.911 2.90339H99.6507Z" fill="#FF6633"/>
<path d="M111.203 21.0826C111.203 21.3378 111.075 21.4653 110.82 21.4653H102.17C102.068 21.4653 102.017 21.5164 102.017 21.6184V23.6851C102.017 24.6036 102.272 25.3563 102.783 25.9432C103.293 26.53 103.956 26.8234 104.773 26.8234C105.487 26.8234 106.087 26.6065 106.572 26.1728C107.056 25.739 107.363 25.1777 107.49 24.4888C107.567 24.2847 107.707 24.1826 107.911 24.1826L110.743 24.3357C110.871 24.3357 110.96 24.374 111.011 24.4506C111.088 24.5271 111.113 24.6164 111.088 24.7185C110.909 26.3769 110.271 27.6782 109.174 28.6222C108.103 29.5407 106.635 30 104.773 30C102.808 30 101.239 29.4514 100.065 28.3543C98.9173 27.2572 98.3432 25.7901 98.3432 23.953V15.9924C98.3432 14.1809 98.9173 12.7138 100.065 11.5911C101.239 10.4685 102.808 9.90718 104.773 9.90718C106.763 9.90718 108.332 10.4685 109.48 11.5911C110.628 12.7138 111.203 14.1809 111.203 15.9924V21.0826ZM104.773 13.0838C103.956 13.0838 103.293 13.3772 102.783 13.964C102.272 14.5509 102.017 15.3035 102.017 16.2221V18.2505C102.017 18.3525 102.068 18.4036 102.17 18.4036H107.414C107.516 18.4036 107.567 18.3525 107.567 18.2505V16.2221C107.567 15.3035 107.312 14.5509 106.801 13.964C106.291 13.3772 105.615 13.0838 104.773 13.0838Z" fill="#FF6633"/>
<path d="M118.436 30C116.471 30 114.902 29.4514 113.728 28.3543C112.58 27.2572 112.006 25.7773 112.006 23.9147V15.9924C112.006 14.1809 112.58 12.7138 113.728 11.5911C114.902 10.4685 116.471 9.90718 118.436 9.90718C119.737 9.90718 120.872 10.1623 121.842 10.6726C122.837 11.1574 123.59 11.8335 124.1 12.701C124.636 13.543 124.904 14.4998 124.904 15.5714V16.069C124.904 16.3241 124.776 16.4517 124.521 16.4517L121.612 16.5665C121.357 16.5665 121.23 16.4389 121.23 16.1838V15.8011C121.23 15.0611 120.962 14.4233 120.426 13.8875C119.89 13.3517 119.227 13.0838 118.436 13.0838C117.619 13.0838 116.956 13.3772 116.446 13.964C115.935 14.5509 115.68 15.3035 115.68 16.2221V23.6851C115.68 24.6036 115.935 25.3563 116.446 25.9432C116.956 26.53 117.619 26.8234 118.436 26.8234C119.227 26.8234 119.89 26.5555 120.426 26.0197C120.962 25.4839 121.23 24.846 121.23 24.1061V23.7234C121.23 23.4682 121.357 23.3407 121.612 23.3407L124.521 23.3789C124.776 23.3789 124.904 23.5065 124.904 23.7617V24.3357C124.904 25.9942 124.317 27.3592 123.143 28.4308C121.969 29.4769 120.4 30 118.436 30Z" fill="#FF6633"/>
<path d="M133.633 9.94545C135.24 9.94545 136.465 10.494 137.307 11.5911C138.175 12.6628 138.608 14.1936 138.608 16.1838V29.3111C138.608 29.5662 138.481 29.6938 138.226 29.6938H135.317C135.062 29.6938 134.934 29.5662 134.934 29.3111V16.49C134.934 15.4184 134.705 14.5891 134.245 14.0023C133.786 13.4154 133.148 13.122 132.332 13.122C131.49 13.122 130.826 13.4154 130.342 14.0023C129.882 14.5636 129.627 15.3673 129.576 16.4134C129.576 16.5665 129.563 16.6431 129.538 16.6431V29.3111C129.538 29.5662 129.41 29.6938 129.155 29.6938H126.246C125.991 29.6938 125.864 29.5662 125.864 29.3111V3.28611C125.864 3.03097 125.991 2.90339 126.246 2.90339H129.155C129.41 2.90339 129.538 3.03097 129.538 3.28611V11.6294C129.538 11.6804 129.563 11.7187 129.614 11.7442C129.665 11.7442 129.716 11.706 129.768 11.6294C130.686 10.5068 131.975 9.94545 133.633 9.94545Z" fill="#FF6633"/>
</svg>
