<?xml version="1.0" encoding="UTF-8"?>
<svg id="Layer_1" xmlns="http://www.w3.org/2000/svg" version="1.1" viewBox="0 0 220 80">
    <!-- Generator: Adobe Illustrator 29.1.0, SVG Export Plug-In . SVG Version: 2.1.0 Build 142)  -->
    <defs>
        <style>
            .st0 {
            fill: #f63;
            }

            .st1 {
            fill: #fff;
            }
        </style>
    </defs>
    <g>
        <path class="st1" d="M15.4,36.2l-9.5,10.9c-2.4-10.3.2-18.6,4.7-26.4,6.2-10.6,17.3-15.7,27.8-15.7s27.3,4.8,33.7,20.3c6.4,15.6.6,29.8-3.5,36,5.2-8.7,5.5-18.3,2.3-30.3-2.7-10.2-14.3-18.8-21.2-20.9,5.4,1.7,17.7,12.3,18.9,24.7,1,9.9-2,15.7-3.6,17.4,2.1-2.9,2-8.3,1-17.4-.8-7.2-7.2-13.3-10.3-15.4,4.3,4.3,6.6,9.3,6.7,15.4.1,4.9-2.6,10.2-4,12.2,1.3-2.1,2.4-10,2.3-12.2-.2-2.2-2.1-19.8-22.3-19.8s-22.1,14-23.1,21.1Z"/>
        <path class="st0" d="M28.3,26.3c-4.5,1-8.2,5.2-9.5,7.2,3.7-2.5,7.1-3.9,18.2-3.9s11.9,2.6,13.1,4.7c0,0,2.1.4,3.4,1.2,1.3.8,3.2,1.8,3.2,1.8,0-.4-.3-1.8-1.9-3.9-1.6-2.1-3.8-3.4-4.7-3.9.6-2-.8-3-1.6-3.3-1.4-1.1-4.8-3.5-7.7-4-2.9-.5-6.3-3.3-7.6-4.7,0,.6.1,2.3,0,3.7-.1,1.5,1.2,3.1,1.8,3.7-.4,0-2.4.3-6.8,1.3ZM22.6,33.7c-7.7,3.3-14.2,11.6-16.3,15.8,1.6,7.2,5.6,11.4,7.5,12.6-.5-4.4,3.4-14.9,9.6-21.7,5.4-5.9,17.9-6.9,24-6.8-6-3.5-15.1-4-24.7,0ZM29,51.7c-2.5,8.7,0,18.9,2,21.8,0,0-10.1-5.2-13.5-7.7-.2-1-.7-5.2,0-8.9,1-5.2,1.1-8.6,7-14.4,3.3-3.3,13-6.7,17.8-6.9-5.6.7-11.3,9.2-13.3,16.2ZM30,55.9c.9-10.7,7.6-15.2,9.3-17.9-1.4,3.9-1.2,3.9-1.7,6-.7,2.7-.2,10.3,1.7,16.9,1.5,5.3,6.2,11.1,8.3,13.3l-11.8.7c-1.6-1.1-6.6-10.4-5.9-19.1ZM64.1,66.1l-11,7.2s-3,0-9.3-7.2c-5.1-5.7-5.3-14.8-4.8-18.6.3,1.5,1.3,4.9,2.4,7.1,1.5,2.7,4.8,6.3,8.7,8.9,3.1,2.1,10.6,2.6,14,2.6Z"/>
    </g>
    <g>
        <path class="st1" d="M102.7,57.4c-2.1,0-3.1,1-3.1,3.1v7.1c0,2.1,1,3.1,3.1,3.1s3.1-1,3.1-3.1v-7.1c0-2.1-1-3.1-3.1-3.1ZM103.3,67.7c0,.5-.2.8-.6.8s-.6-.3-.6-.8v-7.1c0-.5.2-.8.6-.8s.6.3.6.8v7.1ZM130.3,57.4c-2.1,0-3.1,1-3.1,3.1v7.1c0,2.1,1,3.1,3.1,3.1s3.1-1,3.1-3.1v-7.1c0-2.1-1-3.1-3.1-3.1ZM130.9,67.7c0,.5-.2.8-.6.8s-.6-.3-.6-.8v-7.1c0-.5.2-.8.6-.8s.6.3.6.8v7.1ZM138.1,57.4c-2.1,0-3.1,1-3.1,3.1v7.1c0,2.1,1,3.1,3.1,3.1s3.2-1,3.2-3.1v-1.4h-2.6v1.5c0,.5-.2.8-.6.8s-.6-.3-.6-.8v-2.9h3.8v-4.3c0-2.1-1-3.1-3.1-3.1ZM138.7,63h-1.2v-2.5c0-.6.2-.8.6-.8s.6.2.6.8v2.5ZM128.5,56.6l-1.1-.6c.2-1.1.8-1.5,1.6-1.5s1.5.7,2.3.7.6-.1.7-.6l1.1.6c-.2,1.1-.8,1.5-1.5,1.5s-1.5-.7-2.3-.7-.6.1-.7.6ZM97.4,62.2c.5.7.7,1.4.7,2.8v2.4c0,2.2-1,3.4-3.4,3.4s-3.4-1.2-3.4-3.5v-2h2.6v2.2c0,.5.3.8.7.8s.7-.3.7-.8v-1.9c0-1.3-.2-1.6-.7-2.2-.9-.9-1.9-1.7-2.5-2.8-.5-.8-.7-1.7-.7-3.1v-1.5c0-2,1.1-3.1,3.3-3.1s3.3,1.4,3.3,3.6v1.7h-2.5v-2.1c0-.5-.2-.8-.7-.8s-.7.3-.7.7v1.5c0,1,0,1.3.6,1.8.9,1.1,2.1,1.9,2.8,2.8ZM125.6,60.6v1.7h-2.5v-1.7c0-.5-.2-.8-.6-.8s-.6.3-.6.8v7.1c0,.5.2.8.6.8s.6-.3.6-.8v-1.8h2.5v1.8c0,1.6-.6,2.6-1.9,3v1.4c0,1.9-.7,2.8-2.3,2.9v-1.1c.7-.1,1.1-.4,1.1-1.1v-.7h-1.1v-1.4c-1.3-.3-1.9-1.3-1.9-3v-7.1c0-2.1,1-3.1,3.1-3.1s3,1,3,3.1ZM149,66.3v1.8c0,1.8-1,2.7-3.1,2.7s-3.2-1-3.2-2.8v-1.6h2.4v1.7c0,.4.2.6.7.6s.6-.2.6-.5v-1.8c0-.4-.1-.7-.8-1.2-.6-.4-1.7-1.1-2.1-1.6-.6-.6-.7-1.3-.7-2.1v-1.8c0-1.5,1.1-2.4,3-2.4s3.1,1,3.1,2.8v1.3h-2.4v-1.4c0-.4-.2-.6-.6-.6s-.6.2-.6.5v1.5c0,.4,0,.6.6,1,.7.5,1.5.8,2.2,1.4.6.5,1,1.1,1,2.4ZM107.4,52.7h2.6v17.9h-2.6v-17.9ZM115.3,57.5h2.6v13.1h-2.5v-1.1h-.1c-.5.9-1,1.3-1.8,1.3-1.7,0-2-1.4-2-3.2v-10.1h2.6v10.1c0,.7,0,.9.6.9s.6-.2.6-.9v-10.1Z"/>
        <g>
            <path class="st1" d="M186.9,29.6v-.3c0-2.5-1-3.6-3.2-3.6s-3.2,1.1-3.2,3.6v.8l-5.9.5v-1.3c0-6.1,3-9.1,9.1-9.1s9,2.9,9.1,8.9l-5.9.5ZM207.9,20.2c-2.6,0-4.5,1-5.8,3.1v-2.8h-5.7v8.3l6.3-.5c.8-2.1,1.6-2.7,3.3-2.7s2.6.7,2.9,2.2l6.1-.5c-.3-4.4-2.9-7.2-7.1-7.2ZM171,30.9v-10.4h-5.4v2.9c-1.5-2.2-3.4-3.2-6-3.2-4.4,0-7,2.9-7,7.9v4.3l6-.5v-2.7c0-3,1.2-3.6,3.1-3.6s2.9.8,3.5,3.8v1.9l5.8-.5ZM124.8,25.8c1,0,1.8.2,2.3.5l.8.6v-5.8l-.3-.2c-.8-.4-1.6-.6-2.5-.6-2.5,0-4.4,1.3-5.7,3.7v-3.3h-5.7v15l6-.5v-3.3c.9-5,2.7-6,5.2-6ZM110.3,35.8v-15.7c0-6.5-3.6-10.4-9.5-10.4s-9.6,3.9-9.6,10.3v17.3l6.2-.5v-17.2c0-1.8.6-4,3.4-4s3.5,2.2,3.5,4.1v16.6l6.1-.5ZM149,32.7l-18.3,1.5v-4.8c0-6.1,3-9.1,9.1-9.1s9.2,3.1,9.2,9.1v3.4ZM143.1,29.2c0-2.5-1-3.6-3.2-3.6s-3.2,1.1-3.2,3.6v2.7h6.5v-2.7Z"/>
            <path class="st0" d="M180.5,31.6v8.7c0,2.5,1,3.6,3.2,3.6s3.2-1.1,3.2-3.6v-9.2l5.9-.5v9.7c0,6.1-3,9.1-9.1,9.1s-9.1-3-9.1-9.1v-8.2l5.9-.5ZM100.9,49.4c6.1,0,9.5-3.6,9.5-10v-2.1l-6.1.5v1.9c0,2.6-1.1,3.9-3.4,3.9s-3.4-1.3-3.4-4v-1.3l-6.2.5v.5c0,6.5,3.4,10.1,9.6,10.1ZM202.4,29.8l-6,.5v18.7h6v-19.2ZM152.6,33.8v5.9c0,6.4,2.2,9.3,6.9,9.3s4.3-.9,5.5-2.6v6.8c0,2.5-1,3.6-3.3,3.6s-3.2-1.1-3.2-3.6v-3.6h-5.8v3.6c0,6.1,2.9,9.1,9,9.1s9.3-3.1,9.3-9.1v-20.9l-5.8.5v7.1c-1,2.6-2,3.6-3.7,3.6s-2.8-.8-2.8-4.7v-5.4l-6,.5ZM209,29.3v19.7h6v-20.2l-6,.5ZM113.6,49h6v-12.6s-6,.5-6,.5v12.1ZM149,36.6v-2.5l-18.3,1.5v4.7c0,6.1,3,9.1,9.1,9.1s9.2-3.1,9.2-9.1v-1.8h-5.9v1.9c0,2.5-1,3.6-3.3,3.6s-3.2-1.1-3.2-3.6v-3.8h12.4Z"/>
        </g>
    </g>
</svg>