<svg width="664" height="193" viewBox="0 0 664 193" fill="none" xmlns="http://www.w3.org/2000/svg">
    <path d="M291.591 96.3636C291.591 105.767 289.83 113.821 286.307 120.526C282.813 127.202 278.04 132.315 271.989 135.866C265.966 139.418 259.134 141.193 251.491 141.193C243.849 141.193 237.003 139.418 230.952 135.866C224.929 132.287 220.156 127.159 216.634 120.483C213.139 113.778 211.392 105.739 211.392 96.3636C211.392 86.9602 213.139 78.9205 216.634 72.2443C220.156 65.5398 224.929 60.4119 230.952 56.8608C237.003 53.3097 243.849 51.5341 251.491 51.5341C259.134 51.5341 265.966 53.3097 271.989 56.8608C278.04 60.4119 282.813 65.5398 286.307 72.2443C289.83 78.9205 291.591 86.9602 291.591 96.3636ZM275.696 96.3636C275.696 89.7443 274.659 84.1619 272.585 79.6165C270.54 75.0426 267.699 71.5909 264.062 69.2614C260.426 66.9034 256.236 65.7244 251.491 65.7244C246.747 65.7244 242.557 66.9034 238.92 69.2614C235.284 71.5909 232.429 75.0426 230.355 79.6165C228.31 84.1619 227.287 89.7443 227.287 96.3636C227.287 102.983 228.31 108.58 230.355 113.153C232.429 117.699 235.284 121.151 238.92 123.509C242.557 125.838 246.747 127.003 251.491 127.003C256.236 127.003 260.426 125.838 264.062 123.509C267.699 121.151 270.54 117.699 272.585 113.153C274.659 108.58 275.696 102.983 275.696 96.3636ZM305.856 140V74.5455H320.813V85.4545H321.495C322.688 81.6761 324.734 78.7642 327.631 76.7188C330.558 74.6449 333.896 73.608 337.646 73.608C338.498 73.608 339.45 73.6506 340.501 73.7358C341.58 73.7926 342.475 73.892 343.185 74.0341V88.2244C342.532 87.9972 341.495 87.7983 340.075 87.6278C338.683 87.429 337.333 87.3295 336.026 87.3295C333.214 87.3295 330.685 87.9403 328.441 89.1619C326.225 90.3551 324.478 92.017 323.2 94.1477C321.921 96.2784 321.282 98.7358 321.282 101.52V140H305.856ZM379.716 141.278C373.153 141.278 367.486 139.915 362.713 137.188C357.969 134.432 354.318 130.54 351.761 125.511C349.205 120.455 347.926 114.503 347.926 107.656C347.926 100.923 349.205 95.0142 351.761 89.929C354.347 84.8153 357.955 80.8381 362.585 77.9972C367.216 75.1278 372.656 73.6932 378.906 73.6932C382.94 73.6932 386.747 74.3466 390.327 75.6534C393.935 76.9318 397.116 78.9205 399.872 81.6193C402.656 84.3182 404.844 87.7557 406.435 91.9318C408.026 96.0795 408.821 101.023 408.821 106.761V111.491H355.17V101.094H394.034C394.006 98.1392 393.366 95.5114 392.116 93.2102C390.866 90.8807 389.119 89.0483 386.875 87.7131C384.659 86.3778 382.074 85.7102 379.119 85.7102C375.966 85.7102 373.196 86.4773 370.81 88.0114C368.423 89.517 366.563 91.5057 365.227 93.9773C363.92 96.4205 363.253 99.1051 363.224 102.031V111.108C363.224 114.915 363.92 118.182 365.312 120.909C366.705 123.608 368.651 125.682 371.151 127.131C373.651 128.551 376.577 129.261 379.929 129.261C382.173 129.261 384.205 128.949 386.023 128.324C387.841 127.67 389.418 126.719 390.753 125.469C392.088 124.219 393.097 122.67 393.778 120.824L408.182 122.443C407.273 126.25 405.54 129.574 402.983 132.415C400.455 135.227 397.216 137.415 393.267 138.977C389.318 140.511 384.801 141.278 379.716 141.278ZM450.337 165.909C444.798 165.909 440.039 165.156 436.062 163.651C432.085 162.173 428.888 160.185 426.474 157.685C424.059 155.185 422.383 152.415 421.445 149.375L435.337 146.009C435.962 147.287 436.871 148.551 438.065 149.801C439.258 151.08 440.863 152.131 442.88 152.955C444.925 153.807 447.496 154.233 450.593 154.233C454.968 154.233 458.59 153.168 461.46 151.037C464.329 148.935 465.763 145.469 465.763 140.639V128.239H464.996C464.201 129.83 463.036 131.463 461.502 133.139C459.996 134.815 457.994 136.222 455.494 137.358C453.022 138.494 449.911 139.062 446.161 139.062C441.133 139.062 436.573 137.884 432.482 135.526C428.42 133.139 425.181 129.588 422.766 124.872C420.38 120.128 419.187 114.19 419.187 107.06C419.187 99.8722 420.38 93.8068 422.766 88.8636C425.181 83.892 428.434 80.1278 432.525 77.571C436.616 74.9858 441.175 73.6932 446.204 73.6932C450.039 73.6932 453.192 74.3466 455.664 75.6534C458.164 76.9318 460.153 78.4801 461.63 80.2983C463.107 82.0881 464.229 83.7784 464.996 85.3693H465.849V74.5455H481.062V141.065C481.062 146.662 479.727 151.293 477.056 154.957C474.386 158.622 470.735 161.364 466.104 163.182C461.474 165 456.218 165.909 450.337 165.909ZM450.465 126.96C453.732 126.96 456.516 126.165 458.817 124.574C461.119 122.983 462.866 120.696 464.059 117.713C465.252 114.73 465.849 111.151 465.849 106.974C465.849 102.855 465.252 99.2472 464.059 96.1506C462.894 93.054 461.161 90.6534 458.86 88.9489C456.587 87.2159 453.789 86.3494 450.465 86.3494C447.028 86.3494 444.158 87.2443 441.857 89.0341C439.556 90.8239 437.823 93.2812 436.658 96.4062C435.494 99.5028 434.911 103.026 434.911 106.974C434.911 110.98 435.494 114.489 436.658 117.5C437.852 120.483 439.599 122.812 441.9 124.489C444.229 126.136 447.085 126.96 450.465 126.96Z" fill="white"/>
    <path d="M525.423 141.278C519.031 141.278 513.491 139.872 508.803 137.06C504.116 134.247 500.479 130.312 497.894 125.256C495.337 120.199 494.059 114.29 494.059 107.528C494.059 100.767 495.337 94.8437 497.894 89.7585C500.479 84.6733 504.116 80.7244 508.803 77.9119C513.491 75.0994 519.031 73.6932 525.423 73.6932C531.815 73.6932 537.354 75.0994 542.042 77.9119C546.729 80.7244 550.352 84.6733 552.908 89.7585C555.494 94.8437 556.786 100.767 556.786 107.528C556.786 114.29 555.494 120.199 552.908 125.256C550.352 130.312 546.729 134.247 542.042 137.06C537.354 139.872 531.815 141.278 525.423 141.278ZM525.508 128.92C528.974 128.92 531.871 127.969 534.201 126.065C536.531 124.134 538.263 121.548 539.4 118.31C540.565 115.071 541.147 111.463 541.147 107.486C541.147 103.48 540.565 99.858 539.4 96.6193C538.263 93.3523 536.531 90.7528 534.201 88.821C531.871 86.8892 528.974 85.9233 525.508 85.9233C521.957 85.9233 519.002 86.8892 516.644 88.821C514.315 90.7528 512.567 93.3523 511.403 96.6193C510.266 99.858 509.698 103.48 509.698 107.486C509.698 111.463 510.266 115.071 511.403 118.31C512.567 121.548 514.315 124.134 516.644 126.065C519.002 127.969 521.957 128.92 525.508 128.92ZM585.305 101.648V140H569.879V74.5455H584.624V85.6676H585.391C586.896 82.0028 589.297 79.0909 592.592 76.9318C595.916 74.7727 600.021 73.6932 604.908 73.6932C609.425 73.6932 613.359 74.6591 616.712 76.5909C620.092 78.5227 622.706 81.321 624.553 84.9858C626.428 88.6506 627.351 93.0966 627.322 98.3239V140H611.896V100.71C611.896 96.3352 610.76 92.9119 608.487 90.4403C606.243 87.9687 603.132 86.733 599.155 86.733C596.456 86.733 594.055 87.3295 591.953 88.5227C589.879 89.6875 588.246 91.3778 587.053 93.5938C585.888 95.8097 585.305 98.4943 585.305 101.648Z" fill="#FF6600"/>
    <path fill-rule="evenodd" clip-rule="evenodd" d="M646.7 50C652.609 50 657.4 54.795 657.4 60.7094C657.4 66.6237 652.609 71.4188 646.7 71.4188C640.791 71.4188 636 66.6237 636 60.7094C636 54.795 640.791 50 646.7 50V50ZM646.7 52.0182C651.497 52.0182 655.384 55.9101 655.384 60.7094C655.384 65.5101 651.495 69.4006 646.7 69.4006C641.904 69.4006 638.016 65.5087 638.016 60.7094C638.016 55.9086 641.905 52.0182 646.7 52.0182V52.0182Z" fill="#FF6600"/>
    <path d="M642.35 65.9652V55.2565H647.094C648.048 55.2565 648.773 55.3539 649.269 55.5487C649.765 55.7386 650.162 56.0771 650.459 56.5641C650.755 57.0511 650.904 57.5892 650.904 58.1784C650.904 58.9381 650.658 59.5785 650.167 60.0995C649.675 60.6206 648.916 60.9518 647.89 61.093C648.264 61.2732 648.549 61.4509 648.744 61.6262C649.157 62.0061 649.549 62.4809 649.919 63.0506L651.78 65.9652H649.999L648.583 63.7373C648.169 63.0945 647.829 62.6026 647.561 62.2617C647.294 61.9208 647.053 61.6822 646.839 61.5459C646.629 61.4095 646.415 61.3146 646.196 61.261C646.036 61.2269 645.773 61.2099 645.408 61.2099H643.766V65.9652H642.35ZM643.766 59.9827H646.809C647.457 59.9827 647.963 59.9169 648.328 59.7854C648.692 59.6491 648.97 59.4348 649.16 59.1426C649.349 58.8456 649.444 58.5242 649.444 58.1784C649.444 57.6719 649.259 57.2556 648.89 56.9293C648.525 56.603 647.946 56.4399 647.153 56.4399H643.766V59.9827Z" fill="#FF6600"/>
    <path d="M46.7106 109.99L37.9837 138.581C24.6925 121.115 22.6776 103.323 24.7687 84.6801C27.5994 59.4433 44.3475 40.327 64.1936 31.5186C84.0397 22.7102 119.827 17.6485 145.047 41.7488C170.268 65.8492 171.182 97.5815 168.744 112.888C171.171 92.0113 163.763 73.6555 147.676 53.4948C134.01 36.3683 104.769 30.0343 89.914 31.7857C101.611 30.4066 133.685 40.2744 146.492 62.7517C156.738 80.7335 155.964 94.1697 154.297 98.6401C155.742 91.3579 151.125 81.2325 141.659 64.8968C134.086 51.8281 116.845 45.7808 109.171 44.3906C120.943 49.0042 129.411 56.4365 134.872 67.909C139.241 77.087 138.612 89.3688 137.523 94.4024C138.191 89.3097 133.714 73.342 131.582 69.3694C129.449 65.3968 110.973 33.7527 72.7206 50.7306C42.1186 64.313 42.6297 95.8961 46.7106 109.99Z" fill="#170958"/>
    <path d="M62.8851 80.4294C55.2875 86.1627 51.804 97.1534 51.0119 101.932C55.9067 94.1027 61.1422 88.7046 82.2222 79.3484C94.3561 73.963 106.988 74.1364 111.074 77.2419C111.074 77.2419 115.404 76.1811 118.555 76.6268C121.707 77.0725 126.127 77.3244 126.127 77.3244C125.846 76.5064 124.085 74.2216 119.291 71.6274C114.496 69.0332 109.17 68.3307 107.107 68.3037C106.535 64.1304 103.026 63.2692 101.343 63.3602C97.7807 62.3589 89.1979 60.7327 83.3672 62.2384C77.5365 63.7441 68.6956 61.1666 65.004 59.6897C65.6388 60.8427 67.1568 63.8746 68.1503 66.7786C69.1438 69.6826 72.9622 71.6116 74.7472 72.2131C73.9589 72.563 70.4828 74.6961 62.8851 80.4294Z" fill="#FF6633"/>
    <path d="M58.1409 99.1361C46.2751 111.781 41.0264 133.049 40.5042 142.873C49.5213 155.202 61.0354 160.368 65.5499 161.111C60.8281 153.246 59.1607 129.5 65.2232 111.488C70.4786 95.8738 93.3506 83.3448 104.825 78.4158C90.4931 76.9065 72.8442 83.4673 58.1409 99.1361Z" fill="#FF6633"/>
    <path d="M85.6019 128.724C88.4069 147.745 102.117 165.471 108.253 169.509C108.253 169.509 84.6875 167.756 76.1036 165.776C74.8182 163.895 70.2928 156.302 68.3941 148.406C65.7771 137.523 63.1273 130.704 69.1403 114.351C72.4828 105.26 87.8736 90.4421 96.7591 85.9912C86.7902 92.064 83.3382 113.374 85.6019 128.724Z" fill="#FF6633"/>
    <path d="M90.9245 135.007C83.6961 113.989 92.5073 99.748 93.6091 93.3561C94.3215 101.894 94.6255 101.636 95.38 106.22C96.3232 111.951 103.735 125.878 112.852 136.712C120.145 145.379 133.858 152.517 139.802 155.002L118.081 166.242C114.141 165.408 96.811 152.123 90.9245 135.007Z" fill="#FF6633"/>
    <path d="M164.074 125.659L149.218 148.486C149.218 148.486 143.563 150.996 125.513 142.774C111.073 136.197 102.998 119.317 100.766 111.7C102.614 114.2 107.322 119.981 111.367 123.105C116.423 127.009 125.808 130.96 135.4 132.606C143.074 133.922 157.713 128.523 164.074 125.659Z" fill="#FF6633"/>
    <path d="M46.7106 109.99L37.9837 138.581C24.6925 121.115 22.6776 103.323 24.7687 84.6801C27.5994 59.4433 44.3475 40.327 64.1936 31.5186C84.0397 22.7102 119.827 17.6485 145.047 41.7488C170.268 65.8492 171.182 97.5815 168.744 112.888C171.171 92.0113 163.763 73.6555 147.676 53.4948C134.01 36.3683 104.769 30.0343 89.914 31.7857C101.611 30.4066 133.685 40.2744 146.492 62.7517C156.738 80.7335 155.964 94.1697 154.297 98.6401C155.742 91.3579 151.125 81.2325 141.659 64.8968C134.086 51.8281 116.845 45.7808 109.171 44.3906C120.943 49.0042 129.411 56.4365 134.872 67.909C139.241 77.087 138.612 89.3688 137.523 94.4024C138.191 89.3097 133.714 73.342 131.582 69.3694C129.449 65.3968 110.973 33.7527 72.7206 50.7306C42.1186 64.313 42.6297 95.8961 46.7106 109.99Z" fill="white"/>
    <path d="M62.8851 80.4294C55.2875 86.1627 51.804 97.1534 51.0119 101.932C55.9067 94.1027 61.1422 88.7046 82.2222 79.3484C94.3561 73.963 106.988 74.1364 111.074 77.2419C111.074 77.2419 115.404 76.1811 118.555 76.6268C121.707 77.0725 126.127 77.3244 126.127 77.3244C125.846 76.5064 124.085 74.2216 119.291 71.6274C114.496 69.0332 109.17 68.3307 107.107 68.3037C106.535 64.1304 103.026 63.2692 101.343 63.3602C97.7807 62.3589 89.1979 60.7327 83.3672 62.2384C77.5365 63.7441 68.6956 61.1666 65.004 59.6897C65.6388 60.8427 67.1568 63.8746 68.1503 66.7786C69.1438 69.6826 72.9622 71.6116 74.7472 72.2131C73.9589 72.563 70.4828 74.6961 62.8851 80.4294Z" fill="#FF6633"/>
    <path d="M58.1409 99.1361C46.2751 111.781 41.0264 133.049 40.5042 142.873C49.5213 155.202 61.0354 160.368 65.5499 161.111C60.8281 153.246 59.1607 129.5 65.2232 111.488C70.4786 95.8738 93.3506 83.3448 104.825 78.4158C90.4931 76.9065 72.8442 83.4673 58.1409 99.1361Z" fill="#FF6633"/>
    <path d="M85.6019 128.724C88.4069 147.745 102.117 165.471 108.253 169.509C108.253 169.509 84.6875 167.756 76.1036 165.776C74.8182 163.895 70.2928 156.302 68.3941 148.406C65.7771 137.523 63.1273 130.704 69.1403 114.351C72.4828 105.26 87.8736 90.4421 96.7591 85.9912C86.7902 92.064 83.3382 113.374 85.6019 128.724Z" fill="#FF6633"/>
    <path d="M90.9245 135.007C83.6961 113.989 92.5073 99.748 93.6091 93.3561C94.3215 101.894 94.6255 101.636 95.38 106.22C96.3232 111.951 103.735 125.878 112.852 136.712C120.145 145.379 133.858 152.517 139.802 155.002L118.081 166.242C114.141 165.408 96.811 152.123 90.9245 135.007Z" fill="#FF6633"/>
    <path d="M164.074 125.659L149.218 148.486C149.218 148.486 143.563 150.996 125.513 142.774C111.073 136.197 102.998 119.317 100.766 111.7C102.614 114.2 107.322 119.981 111.367 123.105C116.423 127.009 125.808 130.96 135.4 132.606C143.074 133.922 157.713 128.523 164.074 125.659Z" fill="#FF6633"/>
    <circle cx="96.5" cy="96.5" r="73" stroke="#FF6633" stroke-width="3"/>
</svg>
