<svg width="392" height="156" viewBox="0 0 392 156" fill="none" xmlns="http://www.w3.org/2000/svg">
    <path d="M168.31 73.52V40.94H176.5V73.52H168.31ZM140.95 73.52V40.94H149.14V73.52H140.95ZM176.5 41.03H168.31C168.31 37.91 167.44 35.51 165.7 33.83C164.02 32.15 161.68 31.31 158.68 31.31V24.2C162.22 24.2 165.31 24.92 167.95 26.36C170.65 27.74 172.75 29.72 174.25 32.3C175.75 34.82 176.5 37.73 176.5 41.03ZM140.95 41.03C140.95 37.73 141.7 34.82 143.2 32.3C144.7 29.72 146.8 27.74 149.5 26.36C152.2 24.92 155.29 24.2 158.77 24.2V31.31C155.77 31.31 153.4 32.15 151.66 33.83C149.98 35.51 149.14 37.91 149.14 41.03H140.95ZM176.5 73.43C176.5 76.79 175.75 79.73 174.25 82.25C172.75 84.77 170.65 86.75 167.95 88.19C165.31 89.63 162.22 90.35 158.68 90.35V83.24C161.68 83.24 164.02 82.4 165.7 80.72C167.44 78.98 168.31 76.55 168.31 73.43H176.5ZM140.95 73.43H149.14C149.14 76.55 149.98 78.98 151.66 80.72C153.4 82.4 155.77 83.24 158.77 83.24V90.35C155.29 90.35 152.2 89.63 149.5 88.19C146.8 86.75 144.7 84.77 143.2 82.25C141.7 79.73 140.95 76.79 140.95 73.43ZM190.439 89V43.55H198.629V89H190.439ZM194.939 58.58C194.939 55.52 195.449 52.79 196.469 50.39C197.489 47.93 198.869 46.01 200.609 44.63C202.409 43.25 204.389 42.56 206.549 42.56L205.829 50.21C203.729 50.21 201.989 51.02 200.609 52.64C199.289 54.2 198.629 56.18 198.629 58.58H194.939ZM211.229 52.28C210.509 51.68 209.639 51.2 208.619 50.84C207.659 50.42 206.729 50.21 205.829 50.21L206.549 42.56C207.929 42.56 209.279 42.83 210.599 43.37C211.919 43.85 213.059 44.54 214.019 45.44L211.229 52.28ZM221.733 68.75V62.9H252.423V68.75H221.733ZM235.683 90.44V83.33H236.133V90.44H235.683ZM219.123 72.89V59.66H227.313V72.89H219.123ZM244.233 62.9V58.22H252.423V62.9H244.233ZM252.423 58.22H244.233C244.233 55.58 243.423 53.42 241.803 51.74C240.243 50.06 238.203 49.22 235.683 49.22V42.2C238.923 42.2 241.773 42.89 244.233 44.27C246.753 45.65 248.733 47.57 250.173 50.03C251.673 52.43 252.423 55.16 252.423 58.22ZM244.593 75.5L252.243 77.03C251.883 79.61 250.953 81.92 249.453 83.96C247.953 86 246.063 87.59 243.783 88.73C241.503 89.87 238.953 90.44 236.133 90.44V83.33C238.293 83.33 240.153 82.7 241.713 81.44C243.333 80.12 244.293 78.14 244.593 75.5ZM219.123 59.75C219.123 56.33 219.843 53.33 221.283 50.75C222.783 48.11 224.763 46.04 227.223 44.54C229.743 42.98 232.593 42.2 235.773 42.2V49.22C233.133 49.22 231.063 50.15 229.563 52.01C228.063 53.81 227.313 56.39 227.313 59.75H219.123ZM219.123 72.89H227.313C227.313 76.19 228.063 78.77 229.563 80.63C231.063 82.43 233.133 83.33 235.773 83.33V90.44C232.593 90.44 229.743 89.69 227.223 88.19C224.763 86.63 222.783 84.53 221.283 81.89C219.843 79.25 219.123 76.25 219.123 72.89ZM288.288 90.62V43.55H296.478V90.62H288.288ZM262.998 73.34V58.04H271.188V73.34H262.998ZM271.188 58.04H262.998C262.998 55.04 263.628 52.34 264.888 49.94C266.148 47.54 267.858 45.65 270.018 44.27C272.238 42.89 274.758 42.2 277.578 42.2L279.648 49.49C277.188 49.49 275.148 50.3 273.528 51.92C271.968 53.48 271.188 55.52 271.188 58.04ZM291.888 58.22H288.288C288.288 55.64 287.478 53.54 285.858 51.92C284.238 50.3 282.168 49.49 279.648 49.49L277.578 42.2C280.278 42.2 282.708 42.89 284.868 44.27C287.088 45.65 288.798 47.57 289.998 50.03C291.258 52.43 291.888 55.16 291.888 58.22ZM271.188 73.34C271.188 75.86 271.968 77.93 273.528 79.55C275.148 81.11 277.188 81.89 279.648 81.89L277.578 89.18C274.758 89.18 272.238 88.49 270.018 87.11C267.858 85.73 266.148 83.84 264.888 81.44C263.628 79.04 262.998 76.34 262.998 73.34H271.188ZM291.888 73.07C291.888 76.13 291.258 78.89 289.998 81.35C288.798 83.75 287.088 85.67 284.868 87.11C282.708 88.49 280.278 89.18 277.578 89.18L279.648 81.89C282.168 81.89 284.238 81.08 285.858 79.46C287.478 77.84 288.288 75.71 288.288 73.07H291.888ZM296.478 90.35C296.478 93.41 295.758 96.14 294.318 98.54C292.878 101 290.898 102.92 288.378 104.3C285.858 105.74 283.008 106.46 279.828 106.46V99.35C282.288 99.35 284.298 98.48 285.858 96.74C287.478 95.06 288.288 92.93 288.288 90.35H296.478ZM271.278 91.52C271.578 94.16 272.538 96.11 274.158 97.37C275.778 98.69 277.668 99.35 279.828 99.35V106.46C277.068 106.46 274.518 105.89 272.178 104.75C269.838 103.61 267.918 102.02 266.418 99.98C264.978 97.94 264.078 95.63 263.718 93.05L271.278 91.52ZM333.615 72.89V59.66H341.805V72.89H333.615ZM308.325 72.89V59.66H316.515V72.89H308.325ZM324.795 49.31V42.2H325.335V49.31H324.795ZM324.795 90.35V83.24H325.335V90.35H324.795ZM308.325 59.75C308.325 56.39 309.045 53.39 310.485 50.75C311.985 48.11 313.965 46.04 316.425 44.54C318.945 42.98 321.795 42.2 324.975 42.2V49.31C322.335 49.31 320.265 50.21 318.765 52.01C317.265 53.81 316.515 56.39 316.515 59.75H308.325ZM341.805 59.75H333.615C333.615 56.39 332.865 53.81 331.365 52.01C329.925 50.21 327.855 49.31 325.155 49.31V42.2C328.335 42.2 331.155 42.98 333.615 44.54C336.135 46.04 338.115 48.11 339.555 50.75C341.055 53.39 341.805 56.39 341.805 59.75ZM308.325 72.8H316.515C316.515 76.1 317.265 78.68 318.765 80.54C320.265 82.34 322.335 83.24 324.975 83.24V90.35C321.795 90.35 318.945 89.6 316.425 88.1C313.965 86.54 311.985 84.44 310.485 81.8C309.045 79.16 308.325 76.16 308.325 72.8ZM341.805 72.8C341.805 76.16 341.055 79.16 339.555 81.8C338.115 84.44 336.135 86.54 333.615 88.1C331.155 89.6 328.335 90.35 325.155 90.35V83.24C327.855 83.24 329.925 82.34 331.365 80.54C332.865 78.68 333.615 76.1 333.615 72.8H341.805ZM353.726 89V43.55H361.916V89H353.726ZM379.016 89V58.04H387.206V89H379.016ZM379.016 58.04C379.016 55.52 378.236 53.48 376.676 51.92C375.116 50.3 373.106 49.49 370.646 49.49L372.716 42.2C375.476 42.2 377.936 42.89 380.096 44.27C382.316 45.65 384.056 47.54 385.316 49.94C386.576 52.34 387.206 55.04 387.206 58.04H379.016ZM358.316 58.22C358.316 55.16 358.946 52.43 360.206 50.03C361.466 47.57 363.176 45.65 365.336 44.27C367.496 42.89 369.956 42.2 372.716 42.2L370.646 49.49C368.066 49.49 365.966 50.3 364.346 51.92C362.726 53.54 361.916 55.64 361.916 58.22H358.316Z" fill="white"/>
    <path d="M154.8 134.68C154.8 133.693 154.52 132.827 153.96 132.08C153.4 131.307 152.68 130.587 151.8 129.92C150.92 129.253 149.973 128.573 148.96 127.88C147.973 127.187 147.04 126.427 146.16 125.6C145.28 124.773 144.56 123.84 144 122.8C143.44 121.733 143.16 120.507 143.16 119.12H146.8C146.8 120.08 147.08 120.947 147.64 121.72C148.2 122.467 148.92 123.187 149.8 123.88C150.68 124.547 151.613 125.227 152.6 125.92C153.613 126.613 154.56 127.373 155.44 128.2C156.32 129 157.04 129.933 157.6 131C158.16 132.04 158.44 133.267 158.44 134.68H154.8ZM143.16 119.2C143.16 117.733 143.493 116.48 144.16 115.44C144.827 114.4 145.76 113.6 146.96 113.04C148.16 112.48 149.533 112.2 151.08 112.2V115.32C149.747 115.32 148.693 115.667 147.92 116.36C147.173 117.053 146.8 118 146.8 119.2H143.16ZM158.44 134.6C158.44 136.04 158.107 137.293 157.44 138.36C156.773 139.4 155.84 140.2 154.64 140.76C153.467 141.32 152.093 141.6 150.52 141.6V138.44C151.853 138.44 152.893 138.107 153.64 137.44C154.413 136.747 154.8 135.8 154.8 134.6H158.44ZM154.84 118.84C154.707 117.64 154.28 116.76 153.56 116.2C152.867 115.613 152.04 115.32 151.08 115.32V112.2C152.333 112.2 153.467 112.453 154.48 112.96C155.493 113.467 156.333 114.16 157 115.04C157.667 115.92 158.08 116.96 158.24 118.16L154.84 118.84ZM145.72 133.08C145.88 134.76 146.373 136.08 147.2 137.04C148.053 137.973 149.16 138.44 150.52 138.44V141.6C148.253 141.6 146.4 140.907 144.96 139.52C143.547 138.133 142.693 136.213 142.4 133.76L145.72 133.08ZM174.107 133.84V127.96H177.747V133.84H174.107ZM162.867 133.84V127.96H166.507V133.84H162.867ZM170.187 123.36V120.2H170.427V123.36H170.187ZM170.187 141.6V138.44H170.427V141.6H170.187ZM162.867 128C162.867 126.507 163.187 125.173 163.827 124C164.494 122.827 165.374 121.907 166.467 121.24C167.587 120.547 168.854 120.2 170.267 120.2V123.36C169.094 123.36 168.174 123.76 167.507 124.56C166.841 125.36 166.507 126.507 166.507 128H162.867ZM177.747 128H174.107C174.107 126.507 173.774 125.36 173.107 124.56C172.467 123.76 171.547 123.36 170.347 123.36V120.2C171.761 120.2 173.014 120.547 174.107 121.24C175.227 121.907 176.107 122.827 176.747 124C177.414 125.173 177.747 126.507 177.747 128ZM162.867 133.8H166.507C166.507 135.267 166.841 136.413 167.507 137.24C168.174 138.04 169.094 138.44 170.267 138.44V141.6C168.854 141.6 167.587 141.267 166.467 140.6C165.374 139.907 164.494 138.973 163.827 137.8C163.187 136.627 162.867 135.293 162.867 133.8ZM177.747 133.8C177.747 135.293 177.414 136.627 176.747 137.8C176.107 138.973 175.227 139.907 174.107 140.6C173.014 141.267 171.761 141.6 170.347 141.6V138.44C171.547 138.44 172.467 138.04 173.107 137.24C173.774 136.413 174.107 135.267 174.107 133.8H177.747ZM183.445 141V112.2H187.085V141H183.445ZM208.183 120.8V141H204.543V120.8H208.183ZM196.943 120.8V134.56H193.303V120.8H196.943ZM196.943 134.56C196.943 135.68 197.29 136.6 197.983 137.32C198.703 138.013 199.61 138.36 200.703 138.36L199.783 141.6C198.53 141.6 197.41 141.293 196.423 140.68C195.463 140.067 194.703 139.227 194.143 138.16C193.583 137.093 193.303 135.893 193.303 134.56H196.943ZM206.143 134.44C206.143 135.8 205.863 137.027 205.303 138.12C204.77 139.187 204.01 140.04 203.023 140.68C202.063 141.293 200.983 141.6 199.783 141.6L200.703 138.36C201.823 138.36 202.743 138 203.463 137.28C204.183 136.56 204.543 135.613 204.543 134.44H206.143ZM213.848 133.88V127.92H217.488V133.88H213.848ZM213.848 127.96C213.848 126.467 214.168 125.133 214.808 123.96C215.475 122.787 216.355 121.867 217.448 121.2C218.568 120.507 219.835 120.16 221.248 120.16V123.32C220.075 123.32 219.155 123.72 218.488 124.52C217.822 125.32 217.488 126.467 217.488 127.96H213.848ZM224.968 126.8C224.835 125.6 224.408 124.72 223.688 124.16C222.995 123.6 222.168 123.32 221.208 123.32V120.16C222.462 120.16 223.595 120.413 224.608 120.92C225.622 121.427 226.462 122.133 227.128 123.04C227.795 123.92 228.208 124.947 228.368 126.12L224.968 126.8ZM213.848 133.84H217.488C217.488 135.307 217.822 136.453 218.488 137.28C219.155 138.08 220.075 138.48 221.248 138.48V141.64C219.835 141.64 218.568 141.307 217.448 140.64C216.355 139.947 215.475 139.013 214.808 137.84C214.168 136.667 213.848 135.333 213.848 133.84ZM224.968 135L228.368 135.68C228.208 136.827 227.795 137.853 227.128 138.76C226.462 139.667 225.622 140.373 224.608 140.88C223.595 141.387 222.462 141.64 221.208 141.64V138.48C222.168 138.48 222.995 138.2 223.688 137.64C224.408 137.053 224.835 136.173 224.968 135ZM222.608 147.84C221.968 147.84 221.315 147.747 220.648 147.56C220.008 147.4 219.395 147.173 218.808 146.88L219.648 144.8C220.342 145.067 220.968 145.227 221.528 145.28C222.115 145.36 222.555 145.28 222.848 145.04C223.168 144.8 223.235 144.333 223.048 143.64H226.328C226.515 145 226.262 146.04 225.568 146.76C224.902 147.48 223.915 147.84 222.608 147.84ZM223.048 143.64C222.888 143.027 222.715 142.507 222.528 142.08C222.342 141.653 222.128 141.227 221.888 140.8H225.208C225.448 141.147 225.662 141.533 225.848 141.96C226.062 142.387 226.222 142.947 226.328 143.64H223.048ZM243.398 133.84V127.96H247.038V133.84H243.398ZM232.158 133.84V127.96H235.798V133.84H232.158ZM239.478 123.36V120.2H239.718V123.36H239.478ZM239.478 141.6V138.44H239.718V141.6H239.478ZM232.158 128C232.158 126.507 232.478 125.173 233.118 124C233.784 122.827 234.664 121.907 235.758 121.24C236.878 120.547 238.144 120.2 239.558 120.2V123.36C238.384 123.36 237.464 123.76 236.798 124.56C236.131 125.36 235.798 126.507 235.798 128H232.158ZM247.038 128H243.398C243.398 126.507 243.064 125.36 242.398 124.56C241.758 123.76 240.838 123.36 239.638 123.36V120.2C241.051 120.2 242.304 120.547 243.398 121.24C244.518 121.907 245.398 122.827 246.038 124C246.704 125.173 247.038 126.507 247.038 128ZM232.158 133.8H235.798C235.798 135.267 236.131 136.413 236.798 137.24C237.464 138.04 238.384 138.44 239.558 138.44V141.6C238.144 141.6 236.878 141.267 235.758 140.6C234.664 139.907 233.784 138.973 233.118 137.8C232.478 136.627 232.158 135.293 232.158 133.8ZM247.038 133.8C247.038 135.293 246.704 136.627 246.038 137.8C245.398 138.973 244.518 139.907 243.398 140.6C242.304 141.267 241.051 141.6 239.638 141.6V138.44C240.838 138.44 241.758 138.04 242.398 137.24C243.064 136.413 243.398 135.267 243.398 133.8H247.038ZM241.758 117.44C241.171 117.44 240.691 117.347 240.318 117.16C239.971 116.973 239.651 116.76 239.358 116.52C239.091 116.28 238.811 116.067 238.518 115.88C238.251 115.693 237.904 115.6 237.478 115.6V113.4C238.038 113.4 238.504 113.493 238.878 113.68C239.251 113.867 239.571 114.08 239.838 114.32C240.131 114.56 240.411 114.773 240.678 114.96C240.971 115.147 241.331 115.24 241.758 115.24V117.44ZM233.998 117C233.998 115.88 234.304 115 234.918 114.36C235.531 113.72 236.384 113.4 237.478 113.4V115.6C237.158 115.6 236.904 115.733 236.718 116C236.531 116.24 236.438 116.573 236.438 117H233.998ZM241.758 117.44V115.24C242.078 115.24 242.331 115.12 242.518 114.88C242.704 114.613 242.798 114.267 242.798 113.84H245.238C245.238 114.96 244.931 115.84 244.318 116.48C243.704 117.12 242.851 117.44 241.758 117.44ZM252.496 132V129.4H266.136V132H252.496ZM258.696 141.64V138.48H258.896V141.64H258.696ZM251.336 133.84V127.96H254.976V133.84H251.336ZM262.496 129.4V127.32H266.136V129.4H262.496ZM266.136 127.32H262.496C262.496 126.147 262.136 125.187 261.416 124.44C260.723 123.693 259.816 123.32 258.696 123.32V120.2C260.136 120.2 261.403 120.507 262.496 121.12C263.616 121.733 264.496 122.587 265.136 123.68C265.803 124.747 266.136 125.96 266.136 127.32ZM262.656 135L266.056 135.68C265.896 136.827 265.483 137.853 264.816 138.76C264.149 139.667 263.309 140.373 262.296 140.88C261.283 141.387 260.149 141.64 258.896 141.64V138.48C259.856 138.48 260.683 138.2 261.376 137.64C262.096 137.053 262.523 136.173 262.656 135ZM251.336 128C251.336 126.48 251.656 125.147 252.296 124C252.963 122.827 253.843 121.907 254.936 121.24C256.056 120.547 257.323 120.2 258.736 120.2V123.32C257.563 123.32 256.643 123.733 255.976 124.56C255.309 125.36 254.976 126.507 254.976 128H251.336ZM251.336 133.84H254.976C254.976 135.307 255.309 136.453 255.976 137.28C256.643 138.08 257.563 138.48 258.736 138.48V141.64C257.323 141.64 256.056 141.307 254.936 140.64C253.843 139.947 252.963 139.013 252.296 137.84C251.656 136.667 251.336 135.333 251.336 133.84ZM280.996 135.8C280.996 135.133 280.756 134.587 280.276 134.16C279.796 133.707 279.169 133.307 278.396 132.96C277.649 132.587 276.849 132.213 275.996 131.84C275.169 131.467 274.369 131.04 273.596 130.56C272.849 130.053 272.236 129.427 271.756 128.68C271.276 127.907 271.036 126.973 271.036 125.88C271.036 125.88 271.143 125.88 271.356 125.88C271.596 125.88 271.889 125.88 272.236 125.88C272.609 125.88 272.969 125.88 273.316 125.88C273.663 125.88 273.956 125.88 274.196 125.88C274.436 125.88 274.556 125.88 274.556 125.88C274.556 126.547 274.796 127.107 275.276 127.56C275.756 127.987 276.369 128.373 277.116 128.72C277.889 129.067 278.703 129.44 279.556 129.84C280.409 130.213 281.209 130.653 281.956 131.16C282.703 131.667 283.316 132.293 283.796 133.04C284.303 133.76 284.556 134.68 284.556 135.8C284.556 135.8 284.436 135.8 284.196 135.8C283.956 135.8 283.649 135.8 283.276 135.8C282.929 135.8 282.583 135.8 282.236 135.8C281.889 135.8 281.596 135.8 281.356 135.8C281.116 135.8 280.996 135.8 280.996 135.8ZM277.596 141.6V138.44C278.583 138.44 279.396 138.2 280.036 137.72C280.676 137.213 280.996 136.573 280.996 135.8H284.556C284.556 136.92 284.249 137.92 283.636 138.8C283.049 139.68 282.236 140.373 281.196 140.88C280.156 141.36 278.956 141.6 277.596 141.6ZM271.036 125.88C271.036 124.787 271.303 123.813 271.836 122.96C272.396 122.08 273.169 121.4 274.156 120.92C275.143 120.413 276.236 120.16 277.436 120.16V123.32C276.609 123.32 275.916 123.56 275.356 124.04C274.823 124.52 274.556 125.133 274.556 125.88H271.036ZM273.796 134.96C273.929 136.133 274.356 137.013 275.076 137.6C275.796 138.16 276.636 138.44 277.596 138.44V141.6C276.369 141.6 275.236 141.347 274.196 140.84C273.156 140.333 272.303 139.627 271.636 138.72C270.996 137.813 270.596 136.787 270.436 135.64L273.796 134.96ZM281.196 126.8C281.063 125.6 280.636 124.72 279.916 124.16C279.223 123.6 278.396 123.32 277.436 123.32V120.16C278.689 120.16 279.823 120.413 280.836 120.92C281.849 121.427 282.689 122.133 283.356 123.04C284.023 123.92 284.436 124.947 284.596 126.12L281.196 126.8Z" fill="#FF6633"/>
    <path d="M16.1764 79.5852L1.46109 96.5688C-2.34461 80.5146 1.69676 67.6754 8.81876 55.5038C18.4599 39.0271 35.7969 31 52.1191 31C68.4413 31 94.5737 38.4356 104.553 62.686C114.532 86.9363 105.483 109.018 99.1406 118.791C107.175 105.187 107.682 90.3161 102.777 71.558C98.6102 55.6231 80.4504 42.3537 69.7099 39.0271C78.167 41.6465 97.1954 58.2077 99.1406 77.5573C100.697 93.0369 96.0678 102.033 93.5589 104.596C96.7726 100.033 96.688 91.6681 95.1657 77.5573C93.9479 66.2686 83.946 56.8558 79.0972 53.5604C85.7784 60.3201 89.3303 68.0092 89.584 77.5573C89.787 85.1957 85.6092 93.4425 83.3258 96.5688C85.338 93.2735 87.1315 80.9371 86.8778 77.5573C86.624 74.1774 83.5795 46.8007 52.1191 46.8007C26.9508 46.8007 17.6705 68.657 16.1764 79.5852Z" fill="white"/>
    <path d="M36.3045 64.2074C29.3358 65.8297 23.5906 72.319 21.5891 75.3608C27.3399 71.474 32.5833 69.3616 49.9204 69.3616C59.8998 69.3616 68.526 73.3329 70.3866 76.7128C70.3866 76.7128 73.6848 77.3042 75.7145 78.5717C77.7442 79.8391 80.7042 81.36 80.7042 81.36C80.7606 80.7122 80.2475 78.6055 77.7442 75.3608C75.2409 72.1162 71.7961 70.0094 70.3866 69.3616C71.2661 66.3198 69.118 64.658 67.934 64.2074C65.7915 62.4329 60.3903 58.6982 55.9249 57.9547C51.4596 57.2111 46.1711 52.7441 44.085 50.6035C44.1696 51.5893 44.288 54.1354 44.085 56.4337C43.882 58.732 45.9174 61.2218 46.9604 62.1795C46.312 62.1795 43.2731 62.585 36.3045 64.2074Z" fill="#FF6633"/>
    <path d="M27.3401 75.6134C15.3311 80.6832 5.23893 93.6956 1.88428 100.286C4.31992 111.507 10.6797 118.087 13.5551 119.974C12.7094 113.13 18.7813 96.7869 28.4396 86.2599C36.8121 77.1344 56.348 75.5008 65.7354 75.6134C56.348 70.2057 42.2209 69.3314 27.3401 75.6134Z" fill="#FF6633"/>
    <path d="M37.4037 103.666C33.5263 117.173 37.5447 133.043 40.5329 137.549C40.5329 137.549 24.859 129.409 19.5593 125.551C19.2492 123.917 18.4548 117.517 19.5593 111.693C21.0816 103.666 21.3407 98.3374 30.4689 89.2173C35.5432 84.1476 50.6532 78.8243 58.1236 78.4863C49.4128 79.5848 40.5329 92.7661 37.4037 103.666Z" fill="#FF6633"/>
    <path d="M38.9263 110.258C40.3693 93.612 50.7662 86.5143 53.4725 82.4585C51.3582 88.5422 51.6457 88.4577 50.7662 91.8375C49.6668 96.0623 50.5125 107.892 53.4725 118.116C55.8405 126.295 63.0854 135.381 66.4118 138.902L48.0599 140C45.6074 138.226 37.7511 123.813 38.9263 110.258Z" fill="#FF6633"/>
    <path d="M92.0367 126.142L74.8688 137.296C74.8688 137.296 70.2174 137.296 60.3226 126.142C52.4067 117.219 52.0064 103.159 52.7957 97.2446C53.3032 99.526 54.7747 104.934 56.6014 108.314C58.8849 112.538 64.1283 118.115 70.2174 122.171C75.0886 125.416 86.7933 126.17 92.0367 126.142Z" fill="#FF6633"/>
</svg>
